<svg width="354" height="141" viewBox="0 0 354 141" fill="none" xmlns="http://www.w3.org/2000/svg">
<rect width="354" height="141" fill="#FDFBF7"/>
<circle cx="179" cy="71" r="68" fill="#BBF7D0"/>
<path d="M50.215 53.755C54.7017 55.8617 57.8517 58.265 59.665 60.965C61.4717 63.6317 62.3783 67.6617 62.385 73.055C62.3983 78.3817 61.0983 82.7783 58.485 86.245C55.865 89.6583 52.0717 91.3583 47.105 91.345C42.1317 91.325 38.4717 89.7983 36.125 86.765C33.785 83.6317 32.3217 79.0917 31.735 73.145C33.255 72.8317 34.7717 72.5183 36.285 72.205C37.1117 80.5383 40.565 84.755 46.645 84.855C53.485 84.935 56.895 81.0717 56.875 73.265C56.875 69.905 56.2317 67.3517 54.945 65.605C53.7183 63.9383 51.615 62.4183 48.635 61.045C47.2617 60.3983 45.8917 59.7483 44.525 59.095C40.1983 56.9483 37.1317 54.445 35.325 51.585C33.5717 48.705 32.695 44.4017 32.695 38.675C32.695 33.0483 33.955 28.5917 36.475 25.305C39.055 22.285 42.7417 21.245 47.535 22.185C52.3283 23.0317 55.8283 25.045 58.035 28.225C60.1883 31.285 61.5517 35.4717 62.125 40.785C60.6383 40.985 59.1517 41.185 57.665 41.385C56.8583 33.645 53.6517 29.335 48.045 28.455C41.4983 27.3217 38.2217 30.755 38.215 38.755C38.215 42.3217 38.7983 44.9917 39.965 46.765C41.1317 48.6117 43.1183 50.2217 45.925 51.595C47.3517 52.3217 48.7817 53.0417 50.215 53.755ZM88.865 40.265C93.745 40.4783 97.0183 42.775 98.685 47.155C100.205 45.3683 102.042 43.8917 104.195 42.725C106.342 41.4717 108.575 40.8483 110.895 40.855C118.135 40.7817 121.748 45.675 121.735 55.535C121.748 66.9883 121.772 78.5583 121.805 90.245C120.005 90.2517 118.208 90.255 116.415 90.255C116.382 78.735 116.358 67.3317 116.345 56.045C116.352 52.8917 115.862 50.515 114.875 48.915C113.895 47.3217 112.275 46.525 110.015 46.525C106.302 46.4917 102.875 48.3183 99.735 52.005C99.8483 53.1583 99.905 54.315 99.905 55.475C99.9183 66.9417 99.9417 78.5317 99.975 90.245C98.175 90.2383 96.375 90.235 94.575 90.235C94.5417 78.6483 94.5183 67.175 94.505 55.815C94.505 52.6417 94.0117 50.2317 93.025 48.585C92.045 46.9383 90.3917 46.0617 88.065 45.955C84.3983 45.7617 81.0517 47.3717 78.025 50.785C78.0317 63.805 78.0517 76.9417 78.085 90.195C76.2783 90.1883 74.4717 90.1817 72.665 90.175C72.625 73.335 72.6117 56.7017 72.625 40.275C73.7317 40.3683 74.8383 40.4617 75.945 40.555C76.405 42.1817 76.865 43.8117 77.325 45.445C80.8317 41.7383 84.6783 40.0117 88.865 40.265ZM154.595 42.055C157.075 44.3683 158.312 49.0317 158.305 56.045C158.312 67.425 158.328 78.805 158.355 90.185C157.175 90.1917 155.992 90.195 154.805 90.195C154.338 87.5883 153.872 84.9817 153.405 82.375C149.438 88.415 145.062 91.4383 140.275 91.445C137.155 91.445 134.842 90.2783 133.335 87.945C131.882 85.6117 131.148 82.525 131.135 78.685C131.128 74.7783 131.992 71.5817 133.725 69.095C135.512 66.6883 138.832 64.8683 143.685 63.635C146.772 62.8617 149.858 62.0783 152.945 61.285C152.945 59.625 152.945 57.965 152.945 56.305C152.945 52.0317 152.312 49.1317 151.045 47.605C149.718 46.0183 147.902 45.3017 145.595 45.455C141.028 45.7083 138.308 48.9017 137.435 55.035C135.995 54.4617 134.552 53.885 133.105 53.305C133.745 49.1717 135.135 45.9317 137.275 43.585C139.415 41.1383 142.305 39.7883 145.945 39.535C149.585 39.2417 152.468 40.0817 154.595 42.055ZM141.815 85.735C145.562 85.715 149.278 82.845 152.965 77.125C152.958 73.585 152.952 70.0483 152.945 66.515C150.032 67.315 147.118 68.1117 144.205 68.905C141.258 69.685 139.212 70.8817 138.065 72.495C136.965 74.1083 136.418 76.0383 136.425 78.285C136.432 80.5317 136.872 82.335 137.745 83.695C138.612 85.0617 139.968 85.7417 141.815 85.735ZM176.275 65.255C176.288 73.595 176.298 81.895 176.305 90.155C174.525 90.155 172.742 90.1583 170.955 90.165C170.935 67.4317 170.935 44.5217 170.955 21.435C172.742 20.815 174.525 20.185 176.305 19.545C176.292 32.845 176.282 46.0917 176.275 59.285C177.915 59.2383 179.555 59.1983 181.195 59.165C184.508 51.8917 187.818 44.5217 191.125 37.055C193.105 37.1083 195.088 37.1917 197.075 37.305C193.108 45.8583 189.138 54.365 185.165 62.825C189.512 71.9917 193.852 81.0983 198.185 90.145C196.205 90.145 194.225 90.145 192.245 90.145C188.305 81.8583 184.365 73.535 180.425 65.175C179.045 65.2017 177.662 65.2283 176.275 65.255ZM220.115 30.765C216.255 30.2583 213.378 31.4583 211.485 34.365C209.758 36.8717 208.725 41.2583 208.385 47.525C208.218 50.145 208.135 53.3583 208.135 57.165C208.135 61.0317 208.218 64.3083 208.385 66.995C208.558 69.675 208.902 72.225 209.415 74.645C209.928 77.0583 210.615 78.9717 211.475 80.385C213.375 83.4517 216.252 84.9983 220.105 85.025C226.505 85.065 229.802 80.295 229.995 70.715C231.495 70.8683 232.995 71.0217 234.495 71.175C234.195 77.6283 232.945 82.6317 230.745 86.185C228.485 89.6783 224.935 91.4217 220.095 91.415C213.248 91.4017 208.592 88.375 206.125 82.335C204.865 79.255 203.978 75.705 203.465 71.685C202.945 67.725 202.688 62.8583 202.695 57.085C202.695 51.245 202.952 46.265 203.465 42.145C203.978 38.105 204.865 34.565 206.125 31.525C208.592 25.7317 213.248 23.3783 220.095 24.465C224.595 25.0717 227.972 26.925 230.225 30.025C232.425 33.0517 233.762 37.1683 234.235 42.375C232.755 42.6217 231.285 42.8717 229.825 43.125C228.938 35.5317 225.702 31.4117 220.115 30.765ZM251.365 83.735C252.745 84.8617 254.482 85.4283 256.575 85.435C258.655 85.435 260.392 84.8783 261.785 83.765C263.172 82.725 264.218 81.2083 264.925 79.215C265.572 77.235 266.042 75.175 266.335 73.035C266.628 70.9083 266.778 68.4717 266.785 65.725C266.785 62.9917 266.642 60.5783 266.355 58.485C266.062 56.3983 265.595 54.395 264.955 52.475C264.255 50.555 263.212 49.095 261.825 48.095C260.432 47.0083 258.695 46.445 256.615 46.405C254.522 46.3517 252.785 46.8417 251.405 47.875C250.018 48.835 248.978 50.2717 248.285 52.185C247.592 54.105 247.132 56.0783 246.905 58.105C246.672 60.2183 246.555 62.695 246.555 65.535C246.548 68.3883 246.658 70.8917 246.885 73.045C247.112 75.1183 247.568 77.155 248.255 79.155C248.948 81.1617 249.985 82.6883 251.365 83.735ZM272.165 65.715C272.118 82.875 266.915 91.455 256.555 91.455C246.262 91.4483 241.135 82.7717 241.175 65.425C241.162 48.4917 246.302 40.2517 256.595 40.705C266.962 40.7983 272.152 49.135 272.165 65.715ZM290.385 91.435C282.665 91.4483 278.828 82.855 278.875 65.655C278.862 49.0417 283.532 40.545 292.885 40.165C296.085 39.965 299.405 40.825 302.845 42.745C302.832 36.8383 302.815 31.0183 302.795 25.285C304.602 24.825 306.408 24.3617 308.215 23.895C308.255 45.515 308.255 67.6083 308.215 90.175C307.022 90.175 305.828 90.1783 304.635 90.185C304.108 87.6117 303.588 85.0417 303.075 82.475C299.222 88.4417 294.992 91.4283 290.385 91.435ZM292.155 85.365C295.935 85.3383 299.495 82.5017 302.835 76.855C302.848 67.3217 302.855 57.865 302.855 48.485C299.822 46.4917 296.848 45.5783 293.935 45.745C290.448 45.905 287.982 47.7017 286.535 51.135C285.035 54.5817 284.282 59.395 284.275 65.575C284.242 78.795 286.868 85.3917 292.155 85.365ZM333.605 91.335C328.112 91.355 324.175 89.115 321.795 84.615C319.468 80.2283 318.312 73.5017 318.325 64.435C318.318 46.795 323.335 37.325 333.375 36.025C343.302 34.725 348.265 43.2117 348.265 61.485C348.265 62.1917 348.265 62.8983 348.265 63.605C340.065 64.1183 331.865 64.5983 323.665 65.045C323.712 72.1917 324.462 77.3083 325.915 80.395C327.368 83.495 329.938 85.0217 333.625 84.975C339.585 84.8817 342.772 81.2017 343.185 73.935C344.678 73.995 346.168 74.0517 347.655 74.105C346.895 85.565 342.212 91.3083 333.605 91.335ZM342.845 57.775C342.612 52.5417 341.822 48.5517 340.475 45.805C339.075 43.105 336.738 41.945 333.465 42.325C330.198 42.705 327.835 44.3883 326.375 47.375C324.975 50.255 324.132 54.1717 323.845 59.125C330.178 58.6917 336.512 58.2417 342.845 57.775Z" fill="black" stroke="black"/>
<rect x="0.5" y="97.5" width="24" height="24" fill="white" stroke="black"/>
<rect x="3.5" y="100.5" width="6" height="6" fill="black" stroke="black"/>
<rect x="15.5" y="100.5" width="6" height="6" fill="black" stroke="black"/>
<rect x="3.5" y="112.5" width="6" height="6" fill="black" stroke="black"/>
<line x1="29" y1="95" x2="347.002" y2="95" stroke="black" stroke-width="4"/>
<line x1="25" y1="110" x2="206" y2="110" stroke="black" stroke-width="4"/>
<line x1="27" y1="97" x2="27" y2="20" stroke="black" stroke-width="4"/>
<line x1="12" y1="55" x2="12" y2="97" stroke="black" stroke-width="4"/>
<rect x="5" y="114" width="3" height="3" fill="#F3F3F3"/>
<rect x="17" y="102" width="3" height="3" fill="#F3F3F3"/>
<rect x="5" y="102" width="3" height="3" fill="#F3F3F3"/>
<rect x="6" y="103" width="1" height="1" fill="black"/>
<rect x="6" y="115" width="1" height="1" fill="black"/>
<rect x="18" y="103" width="1" height="1" fill="black"/>
</svg>
